<svg width="20" height="20" viewBox="0 0 20 20" fill="none" xmlns="http://www.w3.org/2000/svg">
    <path d="M12.3407 3.46249C11.2147 2.33579 9.46364 1.66675 7.61957 1.66675C4.33696 1.66675 1.66663 3.71903 1.66663 6.24177V11.1032C1.66663 12.2895 2.25888 13.4162 3.33598 14.277C4.40347 15.1285 5.8308 15.6245 7.35911 15.6756L7.69811 14.5966H7.62037C6.391 14.5966 5.20169 14.2634 4.27284 13.66C3.34239 13.0549 2.77339 12.2461 2.67161 11.3827L2.64917 11.1901L2.77739 11.3282C3.89698 12.5307 5.70738 13.2483 7.62037 13.2483C7.77585 13.2483 7.93774 13.2424 8.12687 13.2296L8.47869 12.1097C8.19499 12.1455 7.90648 12.1642 7.62037 12.1642C6.391 12.1642 5.20169 11.831 4.27284 11.2276C3.34239 10.6225 2.77339 9.81366 2.67161 8.9503L2.64917 8.75769L2.77739 8.89576C3.89698 10.0983 5.70738 10.8159 7.62037 10.8159C8.05234 10.8159 8.48911 10.7784 8.92028 10.7043L9.29213 9.52048C8.75037 9.6611 8.18858 9.73269 7.61957 9.73269C4.9276 9.73269 2.65317 8.13382 2.65317 6.24177C2.65317 4.34971 4.9276 2.75084 7.61957 2.75084C8.68706 2.75084 9.71208 2.9963 10.5856 3.46249H12.3407Z" fill="#E1E8EA"/>
    <path d="M10.4166 19.5834L12.0585 14.8319L8.49055 15.7072L10.7674 8.45855H6.75628L8.08182 4.31052H19.2664L17.9409 8.45855H14.5557L13.7815 10.9702L18.4153 10.0225L10.4166 19.5834Z" fill="#E1E8EA"/>
</svg>
